HIERARCHY
ROOT ui
{
	 OFFSET 0 0 0
	 CHANNELS 3 XPosition YPosition Z Position
	 EndSite
	 {
	 OFFSET 0 -1 0
	 }
}
ROOT li
{
	 OFFSET 0 0 0
	 CHANNELS 3 XPosition YPosition Z Position
	 EndSite
	 {
	 OFFSET 0 -1 0
	 }
}
ROOT ul
{
	 OFFSET 0 0 0
	 CHANNELS 3 XPosition YPosition Z Position
	 EndSite
	 {
	 OFFSET 0 -1 0
	 }
}
ROOT ll
{
	 OFFSET 0 0 0
	 CHANNELS 3 XPosition YPosition Z Position
	 EndSite
	 {
	 OFFSET 0 -1 0
	 }
}
ROOT tt
{
	 OFFSET 0 0 0
	 CHANNELS 3 XPosition YPosition Z Position
	 EndSite
	 {
	 OFFSET 0 -1 0
	 }
}
ROOT tb
{
	 OFFSET 0 0 0
	 CHANNELS 3 XPosition YPosition Z Position
	 EndSite
	 {
	 OFFSET 0 -1 0
	 }
}
ROOT td
{
	 OFFSET 0 0 0
	 CHANNELS 3 XPosition YPosition Z Position
	 EndSite
	 {
	 OFFSET 0 -1 0
	 }
}
ROOT v
{
	 OFFSET 0 0 0
	 CHANNELS 3 XPosition YPosition Z Position
	 EndSite
	 {
	 OFFSET 0 -1 0
	 }
}
ROOT bn
{
	 OFFSET 0 0 0
	 CHANNELS 3 XPosition YPosition Z Position
	 EndSite
	 {
	 OFFSET 0 -1 0
	 }
}
MOTION
Frames: 18
Frame Time: 0.002
0.0021344590187072753	-3.5455799102783204E-4	0		0.4410128173828125	-2.260173095703125	0		-1.0921236572265625	-0.018663190841674806	0		-0.6917025756835937	-2.3210732421875	0		1.3425013427734376	-0.5347072143554688	0		3.051169677734375	-0.10694032287597656	0		4.50301025390625	0.05755580520629883	0		5.574822265625	0.1631764373779297	0		-0.41107327270507815	5.878396484375	0		
0.005033665180206299	0.0022990729808807374	0		0.42767001342773436	-2.2613857421875	0		-1.0922581787109376	-0.018880294799804687	0		-0.6879871215820312	-2.316369140625	0		1.3592662353515625	-0.5403224487304688	0		3.05024267578125	-0.08751422119140626	0		4.52185986328125	0.05463931655883789	0		5.58182470703125	0.15642027282714843	0		-0.42864218139648436	5.8823125	0		
0.004891526222229004	0.0019854789972305296	0		0.44640493774414064	-2.253945068359375	0		-1.0943043212890624	-0.010071515083312988	0		-0.6863214111328125	-2.314640625	0		1.3512484130859375	-0.5246749267578125	0		3.040799560546875	-0.1150092010498047	0		4.5168095703125	0.061963111877441406	0		5.5817109375	0.15500390625	0		-0.409297607421875	5.8768330078125	0		
0.004738477230072022	0.0016759439706802368	0		0.44401925659179686	-2.25627392578125	0		-1.0925572509765624	-0.019299692153930664	0		-0.6887128295898437	-2.316863525390625	0		1.34800244140625	-0.5290772094726562	0		3.063831298828125	-0.09785563659667969	0		4.5135966796875	0.05526511001586914	0		5.577388671875	0.17099533081054688	0		-0.2887882080078125	5.88624609375	0		
0.0045718979835510255	0.0013735250234603882	0		0.469609375	-2.259904052734375	0		-1.098670166015625	-0.014434750556945802	0		-0.7010264892578125	-2.3109697265625	0		1.34475390625	-0.5324703369140625	0		3.0385908203125	-0.10416395568847656	0		4.5165009765625	0.0605126953125	0		5.574349609375	0.15756489562988282	0		-0.2752904663085938	5.89682666015625	0		
0.004387986183166504	0.0010808570384979249	0		0.4241700744628906	-2.264736572265625	0		-1.09291162109375	-0.019695173263549803	0		-0.6935404663085938	-2.32228759765625	0		1.3523433837890626	-0.5489711303710938	0		3.045419189453125	-0.102806396484375	0		4.516322265625	0.05981603622436524	0		5.58131494140625	0.1508291015625	0		-0.3930728759765625	5.88587451171875	0		
0.00418179702758789	8.002240061759949E-4	0		0.45379043579101563	-2.26339013671875	0		-1.088074951171875	-0.01593824291229248	0		-0.7598067016601563	-2.309768310546875	0		1.3612130126953126	-0.5384689331054687	0		3.062158203125	-0.10753800201416015	0		4.51104296875	0.05220567321777344	0		5.57986669921875	0.17897917175292968	0		-0.42586297607421875	5.87799853515625	0		
-0.06595668029785157	0.00932452392578125	0		0.44852142333984374	-2.250637451171875	0		-1.0802310791015626	-0.00920763397216797	0		-0.6862654418945312	-2.313809814453125	0		1.36093603515625	-0.5388452758789063	0		3.065198486328125	-0.08308728790283203	0		4.5199599609375	0.06447225952148437	0		5.583888671875	0.16033607482910156	0		-0.3915445861816406	5.8843818359375	0		
0.0036861488819122314	2.81812995672226E-4	0		0.46797540283203126	-2.2611494140625	0		-1.0885732421875	-0.016286577224731445	0		-0.690746337890625	-2.3179638671875	0		1.34369140625	-0.5340054321289063	0		3.0196142578125	-0.11105431365966797	0		4.515634765625	0.057928123474121095	0		5.58371630859375	0.16437969970703126	0		-0.25911273193359374	5.90565576171875	0		
0.0033990631103515624	4.531300067901611E-5	0		0.4675340270996094	-2.261417724609375	0		-1.0199117431640625	-0.021238393783569336	0		-0.6572510986328125	-2.3235419921875	0		1.3921585693359375	-0.552893310546875	0		3.04439794921875	-0.10478331756591797	0		4.51228271484375	0.051418525695800785	0		5.57346044921875	0.1514915771484375	0		-0.25899691772460937	5.90543701171875	0		
6.0277998447418214E-5	-0.003141688108444214	0		0.4479999084472656	-2.26944873046875	0		-1.094212646484375	-0.020545417785644532	0		-0.7296358642578125	-2.317894775390625	0		1.350845947265625	-0.5507283935546875	0		3.0530634765625	-0.1072951889038086	0		4.51505029296875	0.056885089874267575	0		5.57743212890625	0.1331089630126953	0		-0.42142315673828123	5.86409912109375	0		
0.002780729055404663	-3.837909996509552E-4	0		0.45161880493164064	-2.26472705078125	0		-1.089481689453125	-0.01675054740905762	0		-0.6811729736328125	-2.3266279296875	0		1.350501708984375	-0.5510098876953125	0		3.047917724609375	-0.09261344909667969	0		4.51964697265625	0.0483723030090332	0		5.58302197265625	0.1562877197265625	0		-0.4262291564941406	5.87997216796875	0		
0.006499350070953369	0.0023764190673828127	0		0.44431976318359373	-2.253861572265625	0		-1.085752197265625	-0.01293669319152832	0		-0.7264492797851563	-2.313265625	0		1.3562396240234376	-0.5443394775390625	0		3.060398681640625	-0.1101061782836914	0		4.5144267578125	0.056014610290527345	0		5.57568310546875	0.16087786865234374	0		-0.25895358276367186	5.9048583984375	0		
0.002153348922729492	-7.558180093765259E-4	0		0.43985134887695315	-2.259012939453125	0		-1.0951568603515625	-0.020962316513061522	0		-0.6929229125976563	-2.31880859375	0		1.3498231201171875	-0.5515073852539063	0		3.06523388671875	-0.09747857666015625	0		4.51411767578125	0.05563753128051758	0		5.575455078125	0.16015252685546874	0		-0.4073686828613281	5.8744189453125	0		
0.001852120041847229	-9.206240177154541E-4	0		0.4394612121582031	-2.259195068359375	0		-1.1014000244140625	-0.016014068603515626	0		-0.695338623046875	-2.320922607421875	0		1.3904739990234376	-0.5542047729492188	0		3.051801025390625	-0.10861112213134766	0		4.520748046875	0.04921361541748047	0		5.57945654296875	0.14726411437988282	0		-0.4084268493652344	5.87528173828125	0		
0.001565945029258728	-0.0010714440345764161	0		0.437059814453125	-2.262337646484375	0		-1.0957457275390625	-0.02119580078125	0		-0.6957071533203125	-2.321048583984375	0		1.346147705078125	-0.555888427734375	0		3.042534912109375	-0.10676470184326171	0		4.51353466796875	0.05498415374755859	0		5.5750263671875	0.15889785766601563	0		-0.39239996337890626	5.88395703125	0		
0.0012991549968719483	-0.0012082090377807616	0		0.4237098388671875	-2.26333544921875	0		-1.1629027099609375	-0.011509708404541016	0		-0.7279635620117187	-2.313787109375	0		1.3489100341796876	-0.552103759765625	0		3.0681923828125	-0.11330423736572266	0		4.5181748046875	0.04664482879638672	0		5.58613427734375	0.13554435729980469	0		-0.4255704345703125	5.8762216796875	0		
0.011172788619995117	0.008550612449645997	0		0.4793980712890625	-2.26413037109375	0		-1.0831285400390624	-0.01054294204711914	0		-0.6882520751953125	-2.31236083984375	0		1.3577799072265626	-0.5413714599609375	0		3.056253173828125	-0.0873741455078125	0		4.52200341796875	0.05234639739990234	0		5.584681640625	0.16624131774902343	0		-0.39156689453125	5.8827099609375	0		
